<?xml version="1.0" encoding="utf-8"?>
<!-- Generator: Adobe Illustrator 24.2.0, SVG Export Plug-In . SVG Version: 6.00 Build 0)  -->
<svg version="1.1" id="Bold" xmlns="http://www.w3.org/2000/svg" xmlns:xlink="http://www.w3.org/1999/xlink" x="0px" y="0px"
	 viewBox="0 0 512 512" style="enable-background:new 0 0 512 512;" xml:space="preserve">
<style type="text/css">
	.st0{fill:#333333;}
</style>
<g>
	<path class="st0" d="M327.5,239.7c-15,0-25,9.4-26,24.3h51C351.2,248.9,343.2,239.7,327.5,239.7z"/>
	<path class="st0" d="M200.3,263.1h-37.7v43.2h37c14.1,0,25.6-5,25.6-20.8C225.2,269.4,215.6,263.1,200.3,263.1z"/>
	<path class="st0" d="M218.8,220.7c0-14.4-11.2-17.9-23.7-17.9h-32.5v36.6h35.1C210.1,239.4,218.8,234.1,218.8,220.7z"/>
	<path class="st0" d="M416,0H96C43,0,0,43,0,96v320c0,53,43,96,96,96h320c53,0,96-43,96-96V96C512,43,469,0,416,0z M295.1,184.2H359
		v15.5h-63.9V184.2z M259.9,287.4c0,31.9-26.9,45.6-55.5,45.6H128V176h74.3c27,0,50.4,7.6,50.4,38.9c0,15.9-7.4,26-21.5,32.8
		C250.5,253.2,259.9,267.7,259.9,287.4L259.9,287.4z M383.7,283.7h-82.3c0,18.2,9.6,28.9,28,28.9c9.5,0,21.8-5.1,24.8-14.8h27.6
		c-8.5,26-26.1,38.2-53.4,38.2h0c-36,0-58.4-24.3-58.4-59.7c0-34.1,23.6-60.2,58.4-60.2C366,216.1,386.3,247.2,383.7,283.7z"/>
</g>
</svg>
