<?xml version="1.0" encoding="utf-8"?>
<!-- Generator: Adobe Illustrator 24.2.0, SVG Export Plug-In . SVG Version: 6.00 Build 0)  -->
<svg version="1.1" id="Bold" xmlns="http://www.w3.org/2000/svg" xmlns:xlink="http://www.w3.org/1999/xlink" x="0px" y="0px"
	 viewBox="0 0 512 512" style="enable-background:new 0 0 512 512;" xml:space="preserve">
<style type="text/css">
	.st0{fill:#333333;}
</style>
<path class="st0" d="M416,0H96C43,0,0,43,0,96v320c0,53,43,96,96,96h320c53,0,96-43,96-96V96C512,43,469,0,416,0z M185.3,384h-53.1
	V213.1h53.1V384z M158.7,189.8c-17,0-30.7-14-30.7-31c0-17,13.8-30.7,30.7-30.7c17,0,30.7,13.8,30.7,30.7
	C189.5,175.7,175.7,189.8,158.7,189.8z M384,384L384,384l-53,0v-83.2c0-19.8-0.4-45.3-27.6-45.3c-27.6,0-31.8,21.5-31.8,43.8V384
	h-53V213.1h50.9v23.3h0.7c7.1-13.4,24.4-27.6,50.2-27.6c53.7,0,63.6,35.4,63.6,81.3V384z"/>
</svg>
