<?xml version="1.0" encoding="utf-8"?>
<!-- Generator: Adobe Illustrator 24.2.0, SVG Export Plug-In . SVG Version: 6.00 Build 0)  -->
<svg version="1.1" id="Layer_1" xmlns="http://www.w3.org/2000/svg" xmlns:xlink="http://www.w3.org/1999/xlink" x="0px" y="0px"
	 viewBox="0 0 512 512" style="enable-background:new 0 0 512 512;" xml:space="preserve">
<style type="text/css">
	.st0{fill:#FFFFFF;}
</style>
<g>
	<g>
		<g>
			<path class="st0" d="M189,292.4c-6.2-1.1-12.4,0.3-17.6,3.9c-5.2,3.6-8.6,9-9.7,15.2c-2.3,12.8,6.3,25,19.1,27.3
				c1.4,0.2,2.7,0.4,4.1,0.4c11.2,0,21.2-8.1,23.2-19.5C210.4,306.9,201.8,294.7,189,292.4z M193.3,317.1c-0.8,4.6-5.2,7.7-9.9,6.9
				c-4.6-0.8-7.7-5.2-6.9-9.9c0.8-4.6,5.3-7.7,9.9-6.9C191.1,308,194.2,312.5,193.3,317.1z"/>
		</g>
	</g>
	<g>
		<g>
			<path class="st0" d="M227.7,257.7c-8.3-9.9-23.2-11.2-33.2-2.9c-4.8,4-7.8,9.7-8.3,16s1.4,12.4,5.4,17.2c4,4.8,9.7,7.8,16,8.3
				c0.7,0.1,1.4,0.1,2.1,0.1c5.5,0,10.8-1.9,15.1-5.5C234.7,282.6,236,267.7,227.7,257.7z M215.1,279.4c-1.7,1.5-4,2.2-6.2,2
				c-4.6-0.4-8.1-4.6-7.7-9.2c0.4-4.3,4.1-7.8,8.5-7.8c2.4,0,4.8,1,6.5,3C219.2,271,218.7,276.4,215.1,279.4z"/>
		</g>
	</g>
	<g>
		<g>
			<path class="st0" d="M302.8,387.9c-2.1-5.9-6.5-10.6-12.2-13.3c-5.7-2.7-12.1-2.9-18-0.8c-12.2,4.4-18.5,18-14.1,30.2
				c3.3,9.2,12.3,15.5,22.1,15.5c2.7,0,5.4-0.5,8.1-1.4h0c5.9-2.2,10.6-6.5,13.3-12.2C304.7,400.2,304.9,393.8,302.8,387.9z
				 M288.4,399.5c-1.2,2.5-3.6,4.4-6.3,4.8c-4,0.7-8-1.7-9.4-5.5c-1.6-4.4,0.7-9.3,5.1-10.9c4.4-1.6,9.3,0.7,10.9,5.1
				C289.5,395.2,289.4,397.5,288.4,399.5z"/>
		</g>
	</g>
	<g>
		<g>
			<path class="st0" d="M325.8,270.8c-0.5-6.3-3.5-11.9-8.3-16c-9.9-8.3-24.8-7-33.2,2.9c-8.3,9.9-7,24.8,2.9,33.2
				c4.3,3.6,9.6,5.5,15.1,5.5c0.7,0,1.4,0,2.1-0.1c6.3-0.5,11.9-3.5,16-8.3C324.4,283.2,326.4,277.1,325.8,270.8z M303.1,281.4
				c-2.3,0.2-4.5-0.5-6.2-2c-3.6-3-4.1-8.4-1.1-12c1.7-2,4.1-3,6.5-3c4.4,0,8.1,3.4,8.5,7.8C311.3,276.8,307.7,281,303.1,281.4z"/>
		</g>
	</g>
	<g>
		<g>
			<path class="st0" d="M213.9,352.4c-6.5-11.2-20.9-15.1-32.2-8.6c-5.4,3.1-9.3,8.2-11,14.3c-1.6,6.1-0.8,12.4,2.4,17.9
				c3.1,5.4,8.2,9.3,14.3,11c2,0.5,4.1,0.8,6.1,0.8c4.1,0,8.1-1.1,11.7-3.2C216.5,378.1,220.4,363.7,213.9,352.4z M197.8,371.6
				c-2,1.1-4.3,1.4-6.5,0.9c-4.5-1.2-7.2-5.9-6-10.4c1-3.7,4.4-6.3,8.2-6.3c2.9,0,5.8,1.5,7.4,4.3
				C203.2,364,201.8,369.2,197.8,371.6z"/>
		</g>
	</g>
	<g>
		<g>
			<path class="st0" d="M256,232.5c-13,0-23.5,10.6-23.5,23.5c0,13,10.6,23.5,23.5,23.5s23.5-10.6,23.5-23.5
				C279.5,243,269,232.5,256,232.5z M256,264.5c-4.7,0-8.5-3.8-8.5-8.5c0-4.7,3.8-8.5,8.5-8.5s8.5,3.8,8.5,8.5
				C264.5,260.7,260.7,264.5,256,264.5z"/>
		</g>
	</g>
	<g>
		<g>
			<path class="st0" d="M256,208.4c-66,0-119.7,53.7-119.7,119.7S190,447.9,256,447.9s119.7-53.7,119.7-119.7S322,208.4,256,208.4z
				 M256,432.8c-57.7,0-104.7-47-104.7-104.7s47-104.7,104.7-104.7s104.7,47,104.7,104.7C360.7,385.9,313.7,432.8,256,432.8z"/>
		</g>
	</g>
	<g>
		<g>
			<path class="st0" d="M350.2,311.5c-1.1-6.2-4.5-11.6-9.7-15.2c-5.2-3.6-11.4-5-17.6-3.9c-12.8,2.3-21.4,14.5-19.1,27.3
				c2,11.4,12,19.5,23.2,19.5c1.4,0,2.7-0.1,4.1-0.4c0,0,0,0,0,0C343.9,336.5,352.5,324.3,350.2,311.5z M328.5,324L328.5,324
				c-4.6,0.8-9-2.3-9.9-6.9c-0.8-4.6,2.3-9.1,6.9-9.9c0.5-0.1,1-0.1,1.5-0.1c4.1,0,7.7,3,8.4,7C336.2,318.8,333.1,323.2,328.5,324z"
				/>
		</g>
	</g>
	<g>
		<g>
			<path class="st0" d="M239.4,373.8c-5.9-2.2-12.3-1.9-18,0.8c-5.7,2.7-10,7.4-12.2,13.3c-2.1,5.9-1.9,12.3,0.8,18
				c2.7,5.7,7.4,10,13.3,12.2c2.6,1,5.4,1.4,8.1,1.4c3.4,0,6.8-0.7,9.9-2.2c5.7-2.7,10-7.4,12.2-13.3
				C257.9,391.8,251.6,378.2,239.4,373.8z M239.3,398.8c-1.6,4.4-6.6,6.7-10.9,5.1c-4.4-1.6-6.7-6.5-5.1-10.9c1.2-3.3,4.5-5.6,8-5.6
				C237.1,387.4,241.3,393.4,239.3,398.8z"/>
		</g>
	</g>
	<g>
		<g>
			<path class="st0" d="M341.2,358.1c-1.6-6.1-5.5-11.2-11-14.3c-11.2-6.5-25.7-2.6-32.2,8.6c-6.5,11.2-2.6,25.7,8.6,32.2
				c11.1,6.4,25.8,2.5,32.2-8.6C342,370.5,342.8,364.2,341.2,358.1z M325.8,368.5c0,0.3-0.6,1-0.8,1.2c-0.4,0.4-0.8,0.9-1.2,1.2
				c-0.9,0.7-2,1.3-3.1,1.6c-2.2,0.6-4.5,0.3-6.5-0.9c-4.1-2.3-5.5-7.6-3.1-11.6c1.6-2.7,4.4-4.3,7.4-4.3c3.8,0,7.2,2.6,8.2,6.3
				C327.3,364.2,327,366.5,325.8,368.5z"/>
		</g>
	</g>
	<g>
		<g>
			<path class="st0" d="M256,288.6c-21.8,0-39.6,17.8-39.6,39.6c0,21.8,17.8,39.6,39.6,39.6s39.6-17.8,39.6-39.6
				C295.6,306.3,277.8,288.6,256,288.6z M256,352.7c-13.5,0-24.5-11-24.5-24.5s11-24.5,24.5-24.5s24.5,11,24.5,24.5
				S269.5,352.7,256,352.7z"/>
		</g>
	</g>
	<g>
		<g>
			<path class="st0" d="M433.7,56.1c-0.1-0.1-0.3-0.2-0.4-0.3c-22.5-13.2-49-23.3-78.8-29.9c-4-0.9-8.1,1.6-9,5.7
				c-0.9,4,1.6,8.1,5.7,9c21,4.7,40.1,11.1,57.3,19.2c-23.7,7.5-42.6,25.7-51,49c-5.3-0.5-10.7-0.9-16-1.3
				c-16.1-1.2-32.2-2.1-47.8-2.6c-12.7-0.4-25.4-0.7-37.7-0.7c-11.8,0-24.1,0.2-36.3,0.6c-15.8,0.5-32,1.4-48.4,2.6
				c-5.6,0.4-11.2,0.9-16.7,1.3c-8.4-23.3-27.4-41.5-51.1-49c40.4-19.1,91.6-28.7,152.5-28.7c22.4,0,43.8,1.3,63.6,4
				c4.1,0.5,7.9-2.3,8.4-6.5c0.5-4.1-2.3-7.9-6.5-8.4C301.1,17.4,279.1,16,256,16c-71.9,0-131.2,13.2-176.1,39.1
				c-0.5,0.3-0.9,0.6-1.3,1C35.2,56.7,0,92.2,0,135.8v32.1c0,4.1,3.4,7.5,7.5,7.5h144.3c4.2,0,7.5-3.4,7.5-7.5v-32.1
				c0-4.2-0.3-8.3-0.9-12.3c3.3-0.3,6.6-0.5,10-0.8v73.2l-63,42c-20.8,13.8-33.2,37-33.2,61.9v164.6c0,4.1,3.4,7.5,7.5,7.5h16.5
				v16.5c0,4.1,3.4,7.5,7.5,7.5h48.1c4.2,0,7.5-3.4,7.5-7.5v-16.5h193.4v16.5c0,4.1,3.4,7.5,7.5,7.5h48.1c4.2,0,7.5-3.4,7.5-7.5
				v-16.5h16.5c4.2,0,7.5-3.4,7.5-7.5V297.5c0-23.3-11.1-45.6-29.8-59.6l-66.4-49.8v-65.4c3.3,0.3,6.6,0.5,10,0.8
				c-0.6,4-0.9,8.1-0.9,12.3v32.1c0,4.1,3.4,7.5,7.5,7.5h144.3c4.2,0,7.5-3.4,7.5-7.5v-32.1C512,92.3,477,56.9,433.7,56.1z
				 M79.7,71.1c33.1,0,60.5,25,64.2,57.1H15.5C19.2,96.1,46.6,71.1,79.7,71.1z M144.3,160.3H15v-17h129.3L144.3,160.3L144.3,160.3z
				 M223.1,119.8c11.1-0.3,22.2-0.5,32.9-0.5c10.6,0,21.6,0.2,32.6,0.5v32.6h-65.5V119.8z M144.3,480.9h-33.1v-9h33.1V480.9z
				 M400.8,480.9h-33.1v-9h33.1V480.9z M401.1,249.9c14.9,11.2,23.8,28.9,23.8,47.5v159.4H87.2V299.8c0-19.9,9.9-38.4,26.5-49.4
				l66.4-44.3c2.1-1.4,3.3-3.7,3.3-6.3v-78.2c8.3-0.5,16.6-1,24.7-1.3v39.5c0,4.1,3.4,7.5,7.5,7.5h80.5c4.2,0,7.5-3.4,7.5-7.5v-39.5
				c8.3,0.4,16.6,0.8,25,1.3v70.2c0,2.4,1.1,4.6,3,6L401.1,249.9z M432.3,71.1c33.1,0,60.5,25,64.2,57.1H368.2
				C371.9,96.1,399.2,71.1,432.3,71.1z M497,160.3H367.7v-17H497L497,160.3L497,160.3z"/>
		</g>
	</g>
</g>
</svg>
