<?xml version="1.0" encoding="utf-8"?>
<!-- Generator: Adobe Illustrator 24.2.0, SVG Export Plug-In . SVG Version: 6.00 Build 0)  -->
<svg version="1.1" id="Layer_1" xmlns="http://www.w3.org/2000/svg" xmlns:xlink="http://www.w3.org/1999/xlink" x="0px" y="0px"
	 viewBox="0 0 512 512" style="enable-background:new 0 0 512 512;" xml:space="preserve">
<style type="text/css">
	.st0{fill:#FFFFFF;}
</style>
<g>
	<g>
		<path class="st0" d="M499.4-0.6H66.9c-2.3,0-4.6,0.9-6,2.7c-3.2,3.8-1.8,9.3,2.2,11.5l100.9,54.3c0,0,0,0,0,0l23.5,156.6
			c0.8,5.4,7.3,8.2,11.8,5l98.5-70c0,0,0,0,0,0l69.8,38.4c3.3,1.8,7.6,0.8,9.8-2.3L450.8,90c2.4-3.4,1.5-8.1-1.9-10.5
			c-3.4-2.4-8.1-1.5-10.5,1.9l-69.5,99.9c0,0,0,0,0,0l-139.2-76.6c0,0,0-0.1,0-0.1l250.6-83.5c0,0,0.1,0,0,0.1l-20.8,29.9
			c-2.4,3.4-1.8,8.2,1.5,10.6c3.4,2.5,8.2,1.7,10.6-1.8l34-48.8c0.2-0.3,0.4-0.6,0.6-1C508.7,5.2,504.9-0.6,499.4-0.6z M283.1,151.3
			C283.1,151.4,283.1,151.4,283.1,151.3l-78.4,55.8c0,0-0.1,0-0.1,0l12.3-92.1c0,0,0,0,0.1,0L283.1,151.3z M403.4,31l-194.9,65
			c-2.7,0.9-4.7,3.3-5.1,6.1l-9,67.4c0,0-0.1,0-0.1,0l-15-100.3c0,0,0,0,0,0L403.4,31C403.4,30.9,403.5,31,403.4,31z M410.4,14.5
			L172.1,55.1c0,0,0,0,0,0L96.6,14.5c0,0,0-0.1,0-0.1L410.4,14.5C410.4,14.4,410.4,14.5,410.4,14.5z"/>
	</g>
</g>
<g>
	<g>
		<path class="st0" d="M138.3,300.1c-2.1,0-4.3,0.1-6.4,0.3c-4.1,0.3-7.3,3.8-7,8c0.3,4,3.6,7,7.5,7c0.2,0,0.3,0,0.5,0
			c1.9-0.1,3.8-0.2,5.6-0.2c4.1-0.1,7.5-3.5,7.4-7.6S142.5,300,138.3,300.1z"/>
	</g>
</g>
<g>
	<g>
		<path class="st0" d="M175.3,305.4c-3.9-1.3-8-2.3-12.2-3.1c-4.1-0.8-8,1.9-8.8,5.9c-0.8,4.1,1.9,8,5.9,8.8
			c3.6,0.7,7.1,1.6,10.4,2.7c3.9,1.3,8.2-0.9,9.5-4.8C181.4,310.9,179.2,306.7,175.3,305.4z"/>
	</g>
</g>
<g>
	<g>
		<path class="st0" d="M97,375c-0.6-3.4-0.9-7-1-10.5c-0.1-4.1-3.5-7.4-7.7-7.3c-4.1,0.1-7.4,3.5-7.3,7.7c0.1,4.3,0.5,8.5,1.2,12.7
			c0.7,4,4.6,6.8,8.7,6.1C95,382.9,97.7,379.1,97,375z"/>
	</g>
</g>
<g>
	<g>
		<path class="st0" d="M133.7,421.4c-3.2-1.1-6.3-2.6-9.2-4.3c-3.6-2.1-8.2-1-10.3,2.6c-2.1,3.6-1,8.2,2.6,10.3
			c3.8,2.3,7.8,4.1,11.9,5.6c4.1,1.4,8.6-1,9.8-5.1C139.4,426.7,137.3,422.7,133.7,421.4z"/>
	</g>
</g>
<g>
	<g>
		<path class="st0" d="M143.4,271.1c-2.6-3.3-7.3-3.8-10.6-1.2c-3.2,2.5-6.3,5.2-9.3,8c-3,2.8-3.2,7.6-0.4,10.6
			c2.8,3,7.6,3.2,10.6,0.4c2.7-2.5,5.5-4.9,8.4-7.2C145.5,279.1,146,274.3,143.4,271.1z"/>
	</g>
</g>
<g>
	<g>
		<path class="st0" d="M109.3,403.4c-2.1-2.7-4-5.6-5.6-8.7c-1.9-3.7-6.5-5.1-10.2-3.1c-3.7,1.9-5.1,6.5-3.1,10.2
			c2,3.8,4.4,7.5,7,10.9c2.7,3.5,8,3.9,11.2,0.8C111.3,410.8,111.6,406.4,109.3,403.4z"/>
	</g>
</g>
<g>
	<g>
		<path class="st0" d="M98,323.6c-3.8-1.6-8.2,0.1-9.9,4c-1.8,4.2-3.3,8.4-4.2,12c-1.1,4,1.3,8.1,5.3,9.2c0.7,0.2,1.3,0.3,2,0.3
			c3.3,0,6.3-2.2,7.2-5.5c0.6-2.1,1.6-5.5,3.6-10C103.6,329.7,101.8,325.2,98,323.6z"/>
	</g>
</g>
<g>
	<g>
		<path class="st0" d="M117.6,294.6c-3.3-2.6-8-2-10.5,1.3c-2.5,3.2-4.9,6.6-7.2,10c-2.3,3.5-1.3,8.1,2.2,10.4
			c3.4,2.3,8.2,1.3,10.4-2.1c2-3.1,4.2-6.1,6.4-9C121.4,301.9,120.9,297.2,117.6,294.6z"/>
	</g>
</g>
<g>
	<g>
		<path class="st0" d="M208.1,325.1c-3-3.1-6.3-5.9-10-8.5c-3.4-2.4-8.1-1.6-10.5,1.8c-2.4,3.4-1.6,8.1,1.8,10.5
			c2.9,2,5.5,4.2,7.8,6.6c2.8,2.9,7.7,3,10.6,0.2C210.9,332.9,211,328.1,208.1,325.1z"/>
	</g>
</g>
<g>
	<g>
		<path class="st0" d="M173,428.7c-0.9-4.1-4.9-6.6-8.9-5.8c-3.1,0.7-6.4,1.1-9.8,1.3l-0.6,0c-4.1,0.2-7.3,3.7-7.1,7.9
			c0.2,4,3.5,7.1,7.5,7.1c0.1,0,0.3,0,0.4,0l0.8,0c4.1-0.2,8.1-0.8,12-1.6C171.3,436.7,173.9,432.7,173,428.7z"/>
	</g>
</g>
<g>
	<g>
		<path class="st0" d="M224.3,361c-0.4-4.6-1.2-9-2.5-13.1c-1.2-4-5.4-6.2-9.4-4.9c-4,1.2-6.2,5.4-4.9,9.4c1,3.1,1.6,6.4,1.8,9.8
			c0.3,4.1,4,7.2,8.1,6.9C221.4,368.8,224.6,365.1,224.3,361z"/>
	</g>
</g>
<g>
	<g>
		<path class="st0" d="M216.3,377.5c-4-1.2-8.2,1.1-9.3,5.1c-1,3.3-2.2,6.6-3.8,9.7c-1.8,3.7-0.3,8.2,3.4,10.1
			c3.7,1.8,8.3,0.2,10.1-3.4c1.9-3.9,3.5-7.9,4.7-12C222.6,382.8,220.3,378.6,216.3,377.5z"/>
	</g>
</g>
<g>
	<g>
		<path class="st0" d="M174,254.2c-1.8-3.8-6.2-5.4-10-3.6c-3.7,1.7-7.3,3.6-10.9,5.6c-2.8,1.6-4.3,4.9-3.7,8.1c0.7,3.5,3.8,6,7.4,6
			c1.3,0,2.5-0.3,3.7-1c3.2-1.8,6.5-3.5,9.9-5.1C174.2,262.4,175.8,257.9,174,254.2z"/>
	</g>
</g>
<g>
	<g>
		<path class="st0" d="M201.7,409.1c-2.9-3-7.6-3.1-10.6-0.3c-2.5,2.4-5.2,4.5-8.1,6.3c-3.5,2.3-4.5,6.9-2.2,10.4
			c2.2,3.4,6.9,4.5,10.4,2.2c3.6-2.4,7.1-5.1,10.2-8.1C204.5,416.8,204.6,412.1,201.7,409.1z"/>
	</g>
</g>
<g>
	<g>
		<path class="st0" d="M202.1,245.4c-1.1-4-5.2-6.4-9.2-5.3c-2,0.5-4.1,1.1-6,1.7c-3.8,1.1-6,5.1-5.1,9c1,4.1,5.4,6.6,9.5,5.4
			c1.8-0.6,3.7-1.1,5.5-1.6C200.8,253.5,203.2,249.4,202.1,245.4z"/>
	</g>
</g>
<g>
	<g>
		<path class="st0" d="M33.2,500.4c-0.9-1.7-1.7-3.4-2.5-5.1c-1.8-3.8-6.2-5.4-10-3.6c-3.8,1.8-5.4,6.2-3.6,10
			c0.9,1.9,1.8,3.8,2.8,5.7c1.9,3.6,6.5,5.1,10.1,3.2C33.7,508.6,35.1,504.1,33.2,500.4z"/>
	</g>
</g>
<g>
	<g>
		<path class="st0" d="M23.2,475.3c-1-3.4-1.8-6.9-2.5-10.3c-0.8-4.1-4.7-6.7-8.8-5.9c-4.1,0.8-6.7,4.7-5.9,8.8
			c0.8,3.9,1.7,7.7,2.8,11.6c1.1,3.9,5.3,6.3,9.3,5.2C22.1,483.5,24.4,479.3,23.2,475.3z"/>
	</g>
</g>
<g>
	<g>
		<path class="st0" d="M11.7,425.4c-4.1-0.3-7.7,2.9-8,7c-0.2,2.9-0.3,5.9-0.3,8.9c0,2.7-0.1,5.3,1.7,7.6c1.4,1.8,3.7,2.9,6,2.8
			c2.3,0,4.5-1.2,5.9-3c1.7-2.2,1.5-4.7,1.5-7.3c0-2.6,0.1-5.3,0.3-7.9C19,429.2,15.8,425.6,11.7,425.4z"/>
	</g>
</g>
<g>
	<g>
		<path class="st0" d="M19.9,392.6c-4-1.3-8.2,0.9-9.5,4.8c-1.2,3.8-2.3,7.6-3.2,11.4c-1,4,1.6,8.1,5.6,9c4,0.9,8.1-1.6,9-5.6
			c0.8-3.4,1.8-6.9,2.9-10.2C26,398.1,23.8,393.9,19.9,392.6z"/>
	</g>
</g>
<g>
	<g>
		<path class="st0" d="M58.2,337.7c-2.9-3-7.6-3.1-10.6-0.2c-0.8,0.7-1.5,1.5-2.3,2.2c-2,2-4,4.2-6,6.4c-2.7,3.1-2.4,7.9,0.7,10.6
			c3.1,2.7,7.9,2.4,10.6-0.7c1.7-2,3.5-3.9,5.3-5.6c0.7-0.7,1.4-1.3,2-2C60.9,345.5,61.1,340.8,58.2,337.7z"/>
	</g>
</g>
<g>
	<g>
		<path class="st0" d="M35.6,362.8c-3.5-2.2-8.2-1.1-10.3,2.5c-2.1,3.3-4,6.8-5.8,10.3c-1.9,3.7-0.4,8.2,3.3,10.1
			c3.7,1.9,8.2,0.4,10.1-3.3c1.6-3.2,3.4-6.3,5.2-9.3C40.2,369.6,39.1,365,35.6,362.8z"/>
	</g>
</g>
<g>
	<g>
		<path class="st0" d="M81.9,321.8c-2.1-3.6-6.7-4.7-10.3-2.6c-1.8,1.1-3.6,2.2-5.4,3.4c-3.5,2.3-4.4,7-2.1,10.4
			c2.3,3.4,7,4.4,10.4,2.1c1.6-1,3.2-2.1,4.8-3C82.8,330,84,325.4,81.9,321.8z"/>
	</g>
</g>
</svg>
